<mxfile host="app.diagrams.net" modified="2021-09-28T08:50:00.105Z" agent="5.0 (Windows NT 10.0; Win64; x64) AppleWebKit/537.36 (KHTML, like Gecko) Chrome/94.0.4606.61 Safari/537.36" etag="N21EwIa3EczfBFWJBCO5" version="15.3.5" type="github">
  <diagram id="C5RBs43oDa-KdzZeNtuy" name="Page-1">
    <mxGraphModel dx="1038" dy="579" grid="1" gridSize="10" guides="1" tooltips="1" connect="1" arrows="1" fold="1" page="1" pageScale="1" pageWidth="827" pageHeight="1169" math="0" shadow="0">
      <root>
        <mxCell id="WIyWlLk6GJQsqaUBKTNV-0" />
        <mxCell id="WIyWlLk6GJQsqaUBKTNV-1" parent="WIyWlLk6GJQsqaUBKTNV-0" />
        <mxCell id="zkfFHV4jXpPFQw0GAbJ--0" value="Man_power" style="swimlane;fontStyle=2;align=center;verticalAlign=top;childLayout=stackLayout;horizontal=1;startSize=26;horizontalStack=0;resizeParent=1;resizeLast=0;collapsible=1;marginBottom=0;rounded=0;shadow=0;strokeWidth=1;" parent="WIyWlLk6GJQsqaUBKTNV-1" vertex="1">
          <mxGeometry x="50" y="30" width="160" height="606" as="geometry">
            <mxRectangle x="230" y="140" width="160" height="26" as="alternateBounds" />
          </mxGeometry>
        </mxCell>
        <mxCell id="zkfFHV4jXpPFQw0GAbJ--1" value="ManID" style="text;align=left;verticalAlign=top;spacingLeft=4;spacingRight=4;overflow=hidden;rotatable=0;points=[[0,0.5],[1,0.5]];portConstraint=eastwest;" parent="zkfFHV4jXpPFQw0GAbJ--0" vertex="1">
          <mxGeometry y="26" width="160" height="26" as="geometry" />
        </mxCell>
        <mxCell id="W8ViM3ZBRIf40E1-OJ4E-3" value="Man_company" style="text;align=left;verticalAlign=top;spacingLeft=4;spacingRight=4;overflow=hidden;rotatable=0;points=[[0,0.5],[1,0.5]];portConstraint=eastwest;rounded=0;shadow=0;html=0;" parent="zkfFHV4jXpPFQw0GAbJ--0" vertex="1">
          <mxGeometry y="52" width="160" height="26" as="geometry" />
        </mxCell>
        <mxCell id="W8ViM3ZBRIf40E1-OJ4E-8" value="Man_department" style="text;align=left;verticalAlign=top;spacingLeft=4;spacingRight=4;overflow=hidden;rotatable=0;points=[[0,0.5],[1,0.5]];portConstraint=eastwest;rounded=0;shadow=0;html=0;" parent="zkfFHV4jXpPFQw0GAbJ--0" vertex="1">
          <mxGeometry y="78" width="160" height="26" as="geometry" />
        </mxCell>
        <mxCell id="W8ViM3ZBRIf40E1-OJ4E-7" value="Man_section" style="text;align=left;verticalAlign=top;spacingLeft=4;spacingRight=4;overflow=hidden;rotatable=0;points=[[0,0.5],[1,0.5]];portConstraint=eastwest;rounded=0;shadow=0;html=0;" parent="zkfFHV4jXpPFQw0GAbJ--0" vertex="1">
          <mxGeometry y="104" width="160" height="26" as="geometry" />
        </mxCell>
        <mxCell id="W8ViM3ZBRIf40E1-OJ4E-6" value="Man_position" style="text;align=left;verticalAlign=top;spacingLeft=4;spacingRight=4;overflow=hidden;rotatable=0;points=[[0,0.5],[1,0.5]];portConstraint=eastwest;rounded=0;shadow=0;html=0;" parent="zkfFHV4jXpPFQw0GAbJ--0" vertex="1">
          <mxGeometry y="130" width="160" height="26" as="geometry" />
        </mxCell>
        <mxCell id="W8ViM3ZBRIf40E1-OJ4E-5" value="Request_date" style="text;align=left;verticalAlign=top;spacingLeft=4;spacingRight=4;overflow=hidden;rotatable=0;points=[[0,0.5],[1,0.5]];portConstraint=eastwest;rounded=0;shadow=0;html=0;" parent="zkfFHV4jXpPFQw0GAbJ--0" vertex="1">
          <mxGeometry y="156" width="160" height="26" as="geometry" />
        </mxCell>
        <mxCell id="W8ViM3ZBRIf40E1-OJ4E-4" value="Man_startdate" style="text;align=left;verticalAlign=top;spacingLeft=4;spacingRight=4;overflow=hidden;rotatable=0;points=[[0,0.5],[1,0.5]];portConstraint=eastwest;rounded=0;shadow=0;html=0;" parent="zkfFHV4jXpPFQw0GAbJ--0" vertex="1">
          <mxGeometry y="182" width="160" height="26" as="geometry" />
        </mxCell>
        <mxCell id="zkfFHV4jXpPFQw0GAbJ--2" value="Men_no" style="text;align=left;verticalAlign=top;spacingLeft=4;spacingRight=4;overflow=hidden;rotatable=0;points=[[0,0.5],[1,0.5]];portConstraint=eastwest;rounded=0;shadow=0;html=0;" parent="zkfFHV4jXpPFQw0GAbJ--0" vertex="1">
          <mxGeometry y="208" width="160" height="26" as="geometry" />
        </mxCell>
        <mxCell id="W8ViM3ZBRIf40E1-OJ4E-1" value="Men_level" style="text;align=left;verticalAlign=top;spacingLeft=4;spacingRight=4;overflow=hidden;rotatable=0;points=[[0,0.5],[1,0.5]];portConstraint=eastwest;rounded=0;shadow=0;html=0;" parent="zkfFHV4jXpPFQw0GAbJ--0" vertex="1">
          <mxGeometry y="234" width="160" height="26" as="geometry" />
        </mxCell>
        <mxCell id="W8ViM3ZBRIf40E1-OJ4E-2" value="Reason_for_hiring" style="text;align=left;verticalAlign=top;spacingLeft=4;spacingRight=4;overflow=hidden;rotatable=0;points=[[0,0.5],[1,0.5]];portConstraint=eastwest;rounded=0;shadow=0;html=0;" parent="zkfFHV4jXpPFQw0GAbJ--0" vertex="1">
          <mxGeometry y="260" width="160" height="26" as="geometry" />
        </mxCell>
        <mxCell id="W8ViM3ZBRIf40E1-OJ4E-0" value="Man_Emp_type" style="text;align=left;verticalAlign=top;spacingLeft=4;spacingRight=4;overflow=hidden;rotatable=0;points=[[0,0.5],[1,0.5]];portConstraint=eastwest;rounded=0;shadow=0;html=0;" parent="zkfFHV4jXpPFQw0GAbJ--0" vertex="1">
          <mxGeometry y="286" width="160" height="26" as="geometry" />
        </mxCell>
        <mxCell id="W8ViM3ZBRIf40E1-OJ4E-25" value="Man_sex" style="text;align=left;verticalAlign=top;spacingLeft=4;spacingRight=4;overflow=hidden;rotatable=0;points=[[0,0.5],[1,0.5]];portConstraint=eastwest;rounded=0;shadow=0;html=0;" parent="zkfFHV4jXpPFQw0GAbJ--0" vertex="1">
          <mxGeometry y="312" width="160" height="26" as="geometry" />
        </mxCell>
        <mxCell id="W8ViM3ZBRIf40E1-OJ4E-24" value="Man_age" style="text;align=left;verticalAlign=top;spacingLeft=4;spacingRight=4;overflow=hidden;rotatable=0;points=[[0,0.5],[1,0.5]];portConstraint=eastwest;rounded=0;shadow=0;html=0;" parent="zkfFHV4jXpPFQw0GAbJ--0" vertex="1">
          <mxGeometry y="338" width="160" height="26" as="geometry" />
        </mxCell>
        <mxCell id="W8ViM3ZBRIf40E1-OJ4E-23" value="Man_Education" style="text;align=left;verticalAlign=top;spacingLeft=4;spacingRight=4;overflow=hidden;rotatable=0;points=[[0,0.5],[1,0.5]];portConstraint=eastwest;rounded=0;shadow=0;html=0;" parent="zkfFHV4jXpPFQw0GAbJ--0" vertex="1">
          <mxGeometry y="364" width="160" height="26" as="geometry" />
        </mxCell>
        <mxCell id="W8ViM3ZBRIf40E1-OJ4E-22" value="Man_major" style="text;align=left;verticalAlign=top;spacingLeft=4;spacingRight=4;overflow=hidden;rotatable=0;points=[[0,0.5],[1,0.5]];portConstraint=eastwest;rounded=0;shadow=0;html=0;" parent="zkfFHV4jXpPFQw0GAbJ--0" vertex="1">
          <mxGeometry y="390" width="160" height="26" as="geometry" />
        </mxCell>
        <mxCell id="W8ViM3ZBRIf40E1-OJ4E-29" value="Man_Experience" style="text;align=left;verticalAlign=top;spacingLeft=4;spacingRight=4;overflow=hidden;rotatable=0;points=[[0,0.5],[1,0.5]];portConstraint=eastwest;rounded=0;shadow=0;html=0;" parent="zkfFHV4jXpPFQw0GAbJ--0" vertex="1">
          <mxGeometry y="416" width="160" height="26" as="geometry" />
        </mxCell>
        <mxCell id="W8ViM3ZBRIf40E1-OJ4E-28" value="Man_in_field" style="text;align=left;verticalAlign=top;spacingLeft=4;spacingRight=4;overflow=hidden;rotatable=0;points=[[0,0.5],[1,0.5]];portConstraint=eastwest;rounded=0;shadow=0;html=0;" parent="zkfFHV4jXpPFQw0GAbJ--0" vertex="1">
          <mxGeometry y="442" width="160" height="26" as="geometry" />
        </mxCell>
        <mxCell id="W8ViM3ZBRIf40E1-OJ4E-27" value="Man_Engtest_score" style="text;align=left;verticalAlign=top;spacingLeft=4;spacingRight=4;overflow=hidden;rotatable=0;points=[[0,0.5],[1,0.5]];portConstraint=eastwest;rounded=0;shadow=0;html=0;" parent="zkfFHV4jXpPFQw0GAbJ--0" vertex="1">
          <mxGeometry y="468" width="160" height="26" as="geometry" />
        </mxCell>
        <mxCell id="W8ViM3ZBRIf40E1-OJ4E-26" value="Man_Skill" style="text;align=left;verticalAlign=top;spacingLeft=4;spacingRight=4;overflow=hidden;rotatable=0;points=[[0,0.5],[1,0.5]];portConstraint=eastwest;rounded=0;shadow=0;html=0;" parent="zkfFHV4jXpPFQw0GAbJ--0" vertex="1">
          <mxGeometry y="494" width="160" height="26" as="geometry" />
        </mxCell>
        <mxCell id="W8ViM3ZBRIf40E1-OJ4E-21" value="Man_Requisition" style="text;align=left;verticalAlign=top;spacingLeft=4;spacingRight=4;overflow=hidden;rotatable=0;points=[[0,0.5],[1,0.5]];portConstraint=eastwest;rounded=0;shadow=0;html=0;" parent="zkfFHV4jXpPFQw0GAbJ--0" vertex="1">
          <mxGeometry y="520" width="160" height="26" as="geometry" />
        </mxCell>
        <mxCell id="zkfFHV4jXpPFQw0GAbJ--3" value="Man_approval_hrbp" style="text;align=left;verticalAlign=top;spacingLeft=4;spacingRight=4;overflow=hidden;rotatable=0;points=[[0,0.5],[1,0.5]];portConstraint=eastwest;rounded=0;shadow=0;html=0;" parent="zkfFHV4jXpPFQw0GAbJ--0" vertex="1">
          <mxGeometry y="546" width="160" height="26" as="geometry" />
        </mxCell>
        <mxCell id="zkfFHV4jXpPFQw0GAbJ--4" value="" style="line;html=1;strokeWidth=1;align=left;verticalAlign=middle;spacingTop=-1;spacingLeft=3;spacingRight=3;rotatable=0;labelPosition=right;points=[];portConstraint=eastwest;" parent="zkfFHV4jXpPFQw0GAbJ--0" vertex="1">
          <mxGeometry y="572" width="160" height="8" as="geometry" />
        </mxCell>
        <mxCell id="zkfFHV4jXpPFQw0GAbJ--17" value="Personal_information" style="swimlane;fontStyle=0;align=center;verticalAlign=top;childLayout=stackLayout;horizontal=1;startSize=26;horizontalStack=0;resizeParent=1;resizeLast=0;collapsible=1;marginBottom=0;rounded=0;shadow=0;strokeWidth=1;" parent="WIyWlLk6GJQsqaUBKTNV-1" vertex="1">
          <mxGeometry x="940" y="60" width="160" height="580" as="geometry">
            <mxRectangle x="550" y="140" width="160" height="26" as="alternateBounds" />
          </mxGeometry>
        </mxCell>
        <mxCell id="zkfFHV4jXpPFQw0GAbJ--18" value="AppID" style="text;align=left;verticalAlign=top;spacingLeft=4;spacingRight=4;overflow=hidden;rotatable=0;points=[[0,0.5],[1,0.5]];portConstraint=eastwest;" parent="zkfFHV4jXpPFQw0GAbJ--17" vertex="1">
          <mxGeometry y="26" width="160" height="26" as="geometry" />
        </mxCell>
        <mxCell id="zkfFHV4jXpPFQw0GAbJ--19" value="App_position" style="text;align=left;verticalAlign=top;spacingLeft=4;spacingRight=4;overflow=hidden;rotatable=0;points=[[0,0.5],[1,0.5]];portConstraint=eastwest;rounded=0;shadow=0;html=0;" parent="zkfFHV4jXpPFQw0GAbJ--17" vertex="1">
          <mxGeometry y="52" width="160" height="26" as="geometry" />
        </mxCell>
        <mxCell id="zkfFHV4jXpPFQw0GAbJ--20" value="App_Starting_salary" style="text;align=left;verticalAlign=top;spacingLeft=4;spacingRight=4;overflow=hidden;rotatable=0;points=[[0,0.5],[1,0.5]];portConstraint=eastwest;rounded=0;shadow=0;html=0;" parent="zkfFHV4jXpPFQw0GAbJ--17" vertex="1">
          <mxGeometry y="78" width="160" height="26" as="geometry" />
        </mxCell>
        <mxCell id="W8ViM3ZBRIf40E1-OJ4E-74" value="App_Starting_date" style="text;align=left;verticalAlign=top;spacingLeft=4;spacingRight=4;overflow=hidden;rotatable=0;points=[[0,0.5],[1,0.5]];portConstraint=eastwest;rounded=0;shadow=0;html=0;" parent="zkfFHV4jXpPFQw0GAbJ--17" vertex="1">
          <mxGeometry y="104" width="160" height="26" as="geometry" />
        </mxCell>
        <mxCell id="W8ViM3ZBRIf40E1-OJ4E-77" value="App_name" style="text;align=left;verticalAlign=top;spacingLeft=4;spacingRight=4;overflow=hidden;rotatable=0;points=[[0,0.5],[1,0.5]];portConstraint=eastwest;rounded=0;shadow=0;html=0;" parent="zkfFHV4jXpPFQw0GAbJ--17" vertex="1">
          <mxGeometry y="130" width="160" height="26" as="geometry" />
        </mxCell>
        <mxCell id="W8ViM3ZBRIf40E1-OJ4E-76" value="App_Birth_date" style="text;align=left;verticalAlign=top;spacingLeft=4;spacingRight=4;overflow=hidden;rotatable=0;points=[[0,0.5],[1,0.5]];portConstraint=eastwest;rounded=0;shadow=0;html=0;" parent="zkfFHV4jXpPFQw0GAbJ--17" vertex="1">
          <mxGeometry y="156" width="160" height="26" as="geometry" />
        </mxCell>
        <mxCell id="W8ViM3ZBRIf40E1-OJ4E-75" value="App_age" style="text;align=left;verticalAlign=top;spacingLeft=4;spacingRight=4;overflow=hidden;rotatable=0;points=[[0,0.5],[1,0.5]];portConstraint=eastwest;rounded=0;shadow=0;html=0;" parent="zkfFHV4jXpPFQw0GAbJ--17" vertex="1">
          <mxGeometry y="182" width="160" height="26" as="geometry" />
        </mxCell>
        <mxCell id="W8ViM3ZBRIf40E1-OJ4E-73" value="App_Blood_group" style="text;align=left;verticalAlign=top;spacingLeft=4;spacingRight=4;overflow=hidden;rotatable=0;points=[[0,0.5],[1,0.5]];portConstraint=eastwest;rounded=0;shadow=0;html=0;" parent="zkfFHV4jXpPFQw0GAbJ--17" vertex="1">
          <mxGeometry y="208" width="160" height="26" as="geometry" />
        </mxCell>
        <mxCell id="zkfFHV4jXpPFQw0GAbJ--21" value="App_email" style="text;align=left;verticalAlign=top;spacingLeft=4;spacingRight=4;overflow=hidden;rotatable=0;points=[[0,0.5],[1,0.5]];portConstraint=eastwest;rounded=0;shadow=0;html=0;" parent="zkfFHV4jXpPFQw0GAbJ--17" vertex="1">
          <mxGeometry y="234" width="160" height="26" as="geometry" />
        </mxCell>
        <mxCell id="W8ViM3ZBRIf40E1-OJ4E-88" value="App_phone" style="text;align=left;verticalAlign=top;spacingLeft=4;spacingRight=4;overflow=hidden;rotatable=0;points=[[0,0.5],[1,0.5]];portConstraint=eastwest;rounded=0;shadow=0;html=0;" parent="zkfFHV4jXpPFQw0GAbJ--17" vertex="1">
          <mxGeometry y="260" width="160" height="26" as="geometry" />
        </mxCell>
        <mxCell id="W8ViM3ZBRIf40E1-OJ4E-87" value="App_sex" style="text;align=left;verticalAlign=top;spacingLeft=4;spacingRight=4;overflow=hidden;rotatable=0;points=[[0,0.5],[1,0.5]];portConstraint=eastwest;rounded=0;shadow=0;html=0;" parent="zkfFHV4jXpPFQw0GAbJ--17" vertex="1">
          <mxGeometry y="286" width="160" height="26" as="geometry" />
        </mxCell>
        <mxCell id="W8ViM3ZBRIf40E1-OJ4E-89" value="App_height" style="text;align=left;verticalAlign=top;spacingLeft=4;spacingRight=4;overflow=hidden;rotatable=0;points=[[0,0.5],[1,0.5]];portConstraint=eastwest;rounded=0;shadow=0;html=0;" parent="zkfFHV4jXpPFQw0GAbJ--17" vertex="1">
          <mxGeometry y="312" width="160" height="26" as="geometry" />
        </mxCell>
        <mxCell id="W8ViM3ZBRIf40E1-OJ4E-94" value="App_weight" style="text;align=left;verticalAlign=top;spacingLeft=4;spacingRight=4;overflow=hidden;rotatable=0;points=[[0,0.5],[1,0.5]];portConstraint=eastwest;rounded=0;shadow=0;html=0;" parent="zkfFHV4jXpPFQw0GAbJ--17" vertex="1">
          <mxGeometry y="338" width="160" height="26" as="geometry" />
        </mxCell>
        <mxCell id="W8ViM3ZBRIf40E1-OJ4E-93" value="App_nationality" style="text;align=left;verticalAlign=top;spacingLeft=4;spacingRight=4;overflow=hidden;rotatable=0;points=[[0,0.5],[1,0.5]];portConstraint=eastwest;rounded=0;shadow=0;html=0;" parent="zkfFHV4jXpPFQw0GAbJ--17" vertex="1">
          <mxGeometry y="364" width="160" height="26" as="geometry" />
        </mxCell>
        <mxCell id="W8ViM3ZBRIf40E1-OJ4E-92" value="App_IDcard" style="text;align=left;verticalAlign=top;spacingLeft=4;spacingRight=4;overflow=hidden;rotatable=0;points=[[0,0.5],[1,0.5]];portConstraint=eastwest;rounded=0;shadow=0;html=0;" parent="zkfFHV4jXpPFQw0GAbJ--17" vertex="1">
          <mxGeometry y="390" width="160" height="26" as="geometry" />
        </mxCell>
        <mxCell id="W8ViM3ZBRIf40E1-OJ4E-91" value="App_address" style="text;align=left;verticalAlign=top;spacingLeft=4;spacingRight=4;overflow=hidden;rotatable=0;points=[[0,0.5],[1,0.5]];portConstraint=eastwest;rounded=0;shadow=0;html=0;" parent="zkfFHV4jXpPFQw0GAbJ--17" vertex="1">
          <mxGeometry y="416" width="160" height="26" as="geometry" />
        </mxCell>
        <mxCell id="W8ViM3ZBRIf40E1-OJ4E-90" value="App_preaddress" style="text;align=left;verticalAlign=top;spacingLeft=4;spacingRight=4;overflow=hidden;rotatable=0;points=[[0,0.5],[1,0.5]];portConstraint=eastwest;rounded=0;shadow=0;html=0;" parent="zkfFHV4jXpPFQw0GAbJ--17" vertex="1">
          <mxGeometry y="442" width="160" height="26" as="geometry" />
        </mxCell>
        <mxCell id="W8ViM3ZBRIf40E1-OJ4E-86" value="App_driving" style="text;align=left;verticalAlign=top;spacingLeft=4;spacingRight=4;overflow=hidden;rotatable=0;points=[[0,0.5],[1,0.5]];portConstraint=eastwest;rounded=0;shadow=0;html=0;" parent="zkfFHV4jXpPFQw0GAbJ--17" vertex="1">
          <mxGeometry y="468" width="160" height="26" as="geometry" />
        </mxCell>
        <mxCell id="zkfFHV4jXpPFQw0GAbJ--22" value="Military_sevice" style="text;align=left;verticalAlign=top;spacingLeft=4;spacingRight=4;overflow=hidden;rotatable=0;points=[[0,0.5],[1,0.5]];portConstraint=eastwest;rounded=0;shadow=0;html=0;" parent="zkfFHV4jXpPFQw0GAbJ--17" vertex="1">
          <mxGeometry y="494" width="160" height="26" as="geometry" />
        </mxCell>
        <mxCell id="zkfFHV4jXpPFQw0GAbJ--23" value="" style="line;html=1;strokeWidth=1;align=left;verticalAlign=middle;spacingTop=-1;spacingLeft=3;spacingRight=3;rotatable=0;labelPosition=right;points=[];portConstraint=eastwest;" parent="zkfFHV4jXpPFQw0GAbJ--17" vertex="1">
          <mxGeometry y="520" width="160" height="8" as="geometry" />
        </mxCell>
        <mxCell id="zkfFHV4jXpPFQw0GAbJ--24" value="Validate" style="text;align=left;verticalAlign=top;spacingLeft=4;spacingRight=4;overflow=hidden;rotatable=0;points=[[0,0.5],[1,0.5]];portConstraint=eastwest;" parent="zkfFHV4jXpPFQw0GAbJ--17" vertex="1">
          <mxGeometry y="528" width="160" height="26" as="geometry" />
        </mxCell>
        <mxCell id="zkfFHV4jXpPFQw0GAbJ--25" value="Output As Label" style="text;align=left;verticalAlign=top;spacingLeft=4;spacingRight=4;overflow=hidden;rotatable=0;points=[[0,0.5],[1,0.5]];portConstraint=eastwest;" parent="zkfFHV4jXpPFQw0GAbJ--17" vertex="1">
          <mxGeometry y="554" width="160" height="26" as="geometry" />
        </mxCell>
        <mxCell id="zkfFHV4jXpPFQw0GAbJ--26" value="" style="endArrow=open;shadow=0;strokeWidth=1;rounded=0;endFill=1;edgeStyle=elbowEdgeStyle;elbow=vertical;" parent="WIyWlLk6GJQsqaUBKTNV-1" source="zkfFHV4jXpPFQw0GAbJ--0" target="zkfFHV4jXpPFQw0GAbJ--17" edge="1">
          <mxGeometry x="0.5" y="41" relative="1" as="geometry">
            <mxPoint x="380" y="192" as="sourcePoint" />
            <mxPoint x="540" y="192" as="targetPoint" />
            <mxPoint x="-40" y="32" as="offset" />
          </mxGeometry>
        </mxCell>
        <mxCell id="zkfFHV4jXpPFQw0GAbJ--27" value="0..1" style="resizable=0;align=left;verticalAlign=bottom;labelBackgroundColor=none;fontSize=12;" parent="zkfFHV4jXpPFQw0GAbJ--26" connectable="0" vertex="1">
          <mxGeometry x="-1" relative="1" as="geometry">
            <mxPoint y="4" as="offset" />
          </mxGeometry>
        </mxCell>
        <mxCell id="zkfFHV4jXpPFQw0GAbJ--28" value="1" style="resizable=0;align=right;verticalAlign=bottom;labelBackgroundColor=none;fontSize=12;" parent="zkfFHV4jXpPFQw0GAbJ--26" connectable="0" vertex="1">
          <mxGeometry x="1" relative="1" as="geometry">
            <mxPoint x="-7" y="4" as="offset" />
          </mxGeometry>
        </mxCell>
        <mxCell id="zkfFHV4jXpPFQw0GAbJ--29" value="lives at" style="text;html=1;resizable=0;points=[];;align=center;verticalAlign=middle;labelBackgroundColor=none;rounded=0;shadow=0;strokeWidth=1;fontSize=12;" parent="zkfFHV4jXpPFQw0GAbJ--26" vertex="1" connectable="0">
          <mxGeometry x="0.5" y="49" relative="1" as="geometry">
            <mxPoint x="-38" y="40" as="offset" />
          </mxGeometry>
        </mxCell>
        <mxCell id="W8ViM3ZBRIf40E1-OJ4E-13" value="Man_Emp_type" style="swimlane;hachureGap=4;pointerEvents=0;" parent="WIyWlLk6GJQsqaUBKTNV-1" vertex="1">
          <mxGeometry x="290" y="230" width="200" height="110" as="geometry" />
        </mxCell>
        <mxCell id="W8ViM3ZBRIf40E1-OJ4E-14" value="Man_staff_type" style="text;align=left;verticalAlign=top;spacingLeft=4;spacingRight=4;overflow=hidden;rotatable=0;points=[[0,0.5],[1,0.5]];portConstraint=eastwest;rounded=0;shadow=0;html=0;" parent="W8ViM3ZBRIf40E1-OJ4E-13" vertex="1">
          <mxGeometry x="3" y="30" width="160" height="26" as="geometry" />
        </mxCell>
        <mxCell id="W8ViM3ZBRIf40E1-OJ4E-16" value="Man_hiring_period" style="text;align=left;verticalAlign=top;spacingLeft=4;spacingRight=4;overflow=hidden;rotatable=0;points=[[0,0.5],[1,0.5]];portConstraint=eastwest;rounded=0;shadow=0;html=0;" parent="W8ViM3ZBRIf40E1-OJ4E-13" vertex="1">
          <mxGeometry x="3" y="56" width="160" height="26" as="geometry" />
        </mxCell>
        <mxCell id="W8ViM3ZBRIf40E1-OJ4E-17" value="Man_Emp_category" style="text;align=left;verticalAlign=top;spacingLeft=4;spacingRight=4;overflow=hidden;rotatable=0;points=[[0,0.5],[1,0.5]];portConstraint=eastwest;rounded=0;shadow=0;html=0;" parent="W8ViM3ZBRIf40E1-OJ4E-13" vertex="1">
          <mxGeometry x="3" y="82" width="160" height="26" as="geometry" />
        </mxCell>
        <mxCell id="W8ViM3ZBRIf40E1-OJ4E-19" value="" style="endArrow=classic;html=1;startSize=14;endSize=14;sourcePerimeterSpacing=8;targetPerimeterSpacing=8;entryX=-0.004;entryY=0.731;entryDx=0;entryDy=0;entryPerimeter=0;" parent="WIyWlLk6GJQsqaUBKTNV-1" target="W8ViM3ZBRIf40E1-OJ4E-17" edge="1">
          <mxGeometry width="50" height="50" relative="1" as="geometry">
            <mxPoint x="210" y="336" as="sourcePoint" />
            <mxPoint x="270" y="320" as="targetPoint" />
          </mxGeometry>
        </mxCell>
        <mxCell id="W8ViM3ZBRIf40E1-OJ4E-30" value="Man_Requisition" style="swimlane;hachureGap=4;pointerEvents=0;" parent="WIyWlLk6GJQsqaUBKTNV-1" vertex="1">
          <mxGeometry x="610" y="540" width="200" height="190" as="geometry" />
        </mxCell>
        <mxCell id="W8ViM3ZBRIf40E1-OJ4E-31" value="Man_by" style="text;align=left;verticalAlign=top;spacingLeft=4;spacingRight=4;overflow=hidden;rotatable=0;points=[[0,0.5],[1,0.5]];portConstraint=eastwest;rounded=0;shadow=0;html=0;" parent="W8ViM3ZBRIf40E1-OJ4E-30" vertex="1">
          <mxGeometry x="3" y="30" width="160" height="26" as="geometry" />
        </mxCell>
        <mxCell id="W8ViM3ZBRIf40E1-OJ4E-32" value="Man_re_position" style="text;align=left;verticalAlign=top;spacingLeft=4;spacingRight=4;overflow=hidden;rotatable=0;points=[[0,0.5],[1,0.5]];portConstraint=eastwest;rounded=0;shadow=0;html=0;" parent="W8ViM3ZBRIf40E1-OJ4E-30" vertex="1">
          <mxGeometry x="3" y="56" width="160" height="26" as="geometry" />
        </mxCell>
        <mxCell id="W8ViM3ZBRIf40E1-OJ4E-33" value="Man_re_date" style="text;align=left;verticalAlign=top;spacingLeft=4;spacingRight=4;overflow=hidden;rotatable=0;points=[[0,0.5],[1,0.5]];portConstraint=eastwest;rounded=0;shadow=0;html=0;" parent="W8ViM3ZBRIf40E1-OJ4E-30" vertex="1">
          <mxGeometry x="3" y="82" width="160" height="26" as="geometry" />
        </mxCell>
        <mxCell id="W8ViM3ZBRIf40E1-OJ4E-34" value="Man_re_comment" style="text;align=left;verticalAlign=top;spacingLeft=4;spacingRight=4;overflow=hidden;rotatable=0;points=[[0,0.5],[1,0.5]];portConstraint=eastwest;rounded=0;shadow=0;html=0;" parent="W8ViM3ZBRIf40E1-OJ4E-30" vertex="1">
          <mxGeometry x="3" y="108" width="160" height="26" as="geometry" />
        </mxCell>
        <mxCell id="W8ViM3ZBRIf40E1-OJ4E-35" value="Man_re_signature" style="text;align=left;verticalAlign=top;spacingLeft=4;spacingRight=4;overflow=hidden;rotatable=0;points=[[0,0.5],[1,0.5]];portConstraint=eastwest;rounded=0;shadow=0;html=0;" parent="W8ViM3ZBRIf40E1-OJ4E-30" vertex="1">
          <mxGeometry x="3" y="134" width="160" height="26" as="geometry" />
        </mxCell>
        <mxCell id="W8ViM3ZBRIf40E1-OJ4E-36" value="Man_re_signaturedate" style="text;align=left;verticalAlign=top;spacingLeft=4;spacingRight=4;overflow=hidden;rotatable=0;points=[[0,0.5],[1,0.5]];portConstraint=eastwest;rounded=0;shadow=0;html=0;" parent="W8ViM3ZBRIf40E1-OJ4E-30" vertex="1">
          <mxGeometry y="160" width="160" height="26" as="geometry" />
        </mxCell>
        <mxCell id="W8ViM3ZBRIf40E1-OJ4E-37" value="" style="endArrow=classic;html=1;startSize=14;endSize=14;sourcePerimeterSpacing=8;targetPerimeterSpacing=8;entryX=0.03;entryY=0.1;entryDx=0;entryDy=0;entryPerimeter=0;" parent="WIyWlLk6GJQsqaUBKTNV-1" target="W8ViM3ZBRIf40E1-OJ4E-30" edge="1">
          <mxGeometry width="50" height="50" relative="1" as="geometry">
            <mxPoint x="210" y="560.05" as="sourcePoint" />
            <mxPoint x="310" y="559" as="targetPoint" />
          </mxGeometry>
        </mxCell>
        <mxCell id="W8ViM3ZBRIf40E1-OJ4E-44" value="Man_approval_hrbp" style="swimlane;hachureGap=4;pointerEvents=0;" parent="WIyWlLk6GJQsqaUBKTNV-1" vertex="1">
          <mxGeometry x="300" y="570" width="200" height="170" as="geometry" />
        </mxCell>
        <mxCell id="W8ViM3ZBRIf40E1-OJ4E-48" value="Man_hr_comment" style="text;align=left;verticalAlign=top;spacingLeft=4;spacingRight=4;overflow=hidden;rotatable=0;points=[[0,0.5],[1,0.5]];portConstraint=eastwest;rounded=0;shadow=0;html=0;" parent="W8ViM3ZBRIf40E1-OJ4E-44" vertex="1">
          <mxGeometry x="3" y="30" width="160" height="26" as="geometry" />
        </mxCell>
        <mxCell id="W8ViM3ZBRIf40E1-OJ4E-49" value="Man_hr_signature" style="text;align=left;verticalAlign=top;spacingLeft=4;spacingRight=4;overflow=hidden;rotatable=0;points=[[0,0.5],[1,0.5]];portConstraint=eastwest;rounded=0;shadow=0;html=0;" parent="W8ViM3ZBRIf40E1-OJ4E-44" vertex="1">
          <mxGeometry x="3" y="56" width="160" height="26" as="geometry" />
        </mxCell>
        <mxCell id="W8ViM3ZBRIf40E1-OJ4E-50" value="Man_hr_signaturedate" style="text;align=left;verticalAlign=top;spacingLeft=4;spacingRight=4;overflow=hidden;rotatable=0;points=[[0,0.5],[1,0.5]];portConstraint=eastwest;rounded=0;shadow=0;html=0;" parent="W8ViM3ZBRIf40E1-OJ4E-44" vertex="1">
          <mxGeometry x="3" y="82" width="160" height="26" as="geometry" />
        </mxCell>
        <mxCell id="W8ViM3ZBRIf40E1-OJ4E-70" value="Man_bp_signature" style="text;align=left;verticalAlign=top;spacingLeft=4;spacingRight=4;overflow=hidden;rotatable=0;points=[[0,0.5],[1,0.5]];portConstraint=eastwest;rounded=0;shadow=0;html=0;" parent="W8ViM3ZBRIf40E1-OJ4E-44" vertex="1">
          <mxGeometry x="3" y="108" width="160" height="26" as="geometry" />
        </mxCell>
        <mxCell id="W8ViM3ZBRIf40E1-OJ4E-71" value="Man_bp_signaturedate" style="text;align=left;verticalAlign=top;spacingLeft=4;spacingRight=4;overflow=hidden;rotatable=0;points=[[0,0.5],[1,0.5]];portConstraint=eastwest;rounded=0;shadow=0;html=0;" parent="W8ViM3ZBRIf40E1-OJ4E-44" vertex="1">
          <mxGeometry x="3" y="134" width="160" height="26" as="geometry" />
        </mxCell>
        <mxCell id="W8ViM3ZBRIf40E1-OJ4E-65" value="" style="endArrow=classic;html=1;startSize=14;endSize=14;sourcePerimeterSpacing=8;targetPerimeterSpacing=8;entryX=-0.002;entryY=0.088;entryDx=0;entryDy=0;entryPerimeter=0;" parent="WIyWlLk6GJQsqaUBKTNV-1" target="W8ViM3ZBRIf40E1-OJ4E-44" edge="1">
          <mxGeometry width="50" height="50" relative="1" as="geometry">
            <mxPoint x="210" y="585.05" as="sourcePoint" />
            <mxPoint x="290" y="585" as="targetPoint" />
          </mxGeometry>
        </mxCell>
        <mxCell id="W8ViM3ZBRIf40E1-OJ4E-78" value="App_name" style="swimlane;hachureGap=4;pointerEvents=0;" parent="WIyWlLk6GJQsqaUBKTNV-1" vertex="1">
          <mxGeometry x="1200" y="190" width="200" height="140" as="geometry" />
        </mxCell>
        <mxCell id="W8ViM3ZBRIf40E1-OJ4E-79" value="App_FnameTH" style="text;align=left;verticalAlign=top;spacingLeft=4;spacingRight=4;overflow=hidden;rotatable=0;points=[[0,0.5],[1,0.5]];portConstraint=eastwest;rounded=0;shadow=0;html=0;" parent="W8ViM3ZBRIf40E1-OJ4E-78" vertex="1">
          <mxGeometry x="3" y="30" width="160" height="26" as="geometry" />
        </mxCell>
        <mxCell id="W8ViM3ZBRIf40E1-OJ4E-80" value="App_LnameTH" style="text;align=left;verticalAlign=top;spacingLeft=4;spacingRight=4;overflow=hidden;rotatable=0;points=[[0,0.5],[1,0.5]];portConstraint=eastwest;rounded=0;shadow=0;html=0;" parent="W8ViM3ZBRIf40E1-OJ4E-78" vertex="1">
          <mxGeometry x="3" y="56" width="160" height="26" as="geometry" />
        </mxCell>
        <mxCell id="W8ViM3ZBRIf40E1-OJ4E-81" value="App_FnameEng" style="text;align=left;verticalAlign=top;spacingLeft=4;spacingRight=4;overflow=hidden;rotatable=0;points=[[0,0.5],[1,0.5]];portConstraint=eastwest;rounded=0;shadow=0;html=0;" parent="W8ViM3ZBRIf40E1-OJ4E-78" vertex="1">
          <mxGeometry x="3" y="82" width="160" height="26" as="geometry" />
        </mxCell>
        <mxCell id="W8ViM3ZBRIf40E1-OJ4E-82" value="App_LnameEng" style="text;align=left;verticalAlign=top;spacingLeft=4;spacingRight=4;overflow=hidden;rotatable=0;points=[[0,0.5],[1,0.5]];portConstraint=eastwest;rounded=0;shadow=0;html=0;" parent="W8ViM3ZBRIf40E1-OJ4E-78" vertex="1">
          <mxGeometry x="3" y="108" width="160" height="26" as="geometry" />
        </mxCell>
        <mxCell id="W8ViM3ZBRIf40E1-OJ4E-85" value="" style="endArrow=classic;html=1;startSize=14;endSize=14;sourcePerimeterSpacing=8;targetPerimeterSpacing=8;entryX=-0.014;entryY=0.064;entryDx=0;entryDy=0;entryPerimeter=0;" parent="WIyWlLk6GJQsqaUBKTNV-1" target="W8ViM3ZBRIf40E1-OJ4E-78" edge="1">
          <mxGeometry width="50" height="50" relative="1" as="geometry">
            <mxPoint x="1100" y="200.05" as="sourcePoint" />
            <mxPoint x="1180" y="200.00000000000006" as="targetPoint" />
          </mxGeometry>
        </mxCell>
        <mxCell id="W8ViM3ZBRIf40E1-OJ4E-95" value="App_IDcard" style="swimlane;hachureGap=4;pointerEvents=0;" parent="WIyWlLk6GJQsqaUBKTNV-1" vertex="1">
          <mxGeometry x="1610" y="445" width="200" height="140" as="geometry" />
        </mxCell>
        <mxCell id="W8ViM3ZBRIf40E1-OJ4E-96" value="App_idno" style="text;align=left;verticalAlign=top;spacingLeft=4;spacingRight=4;overflow=hidden;rotatable=0;points=[[0,0.5],[1,0.5]];portConstraint=eastwest;rounded=0;shadow=0;html=0;" parent="W8ViM3ZBRIf40E1-OJ4E-95" vertex="1">
          <mxGeometry x="3" y="30" width="160" height="26" as="geometry" />
        </mxCell>
        <mxCell id="W8ViM3ZBRIf40E1-OJ4E-97" value="App_Issued_by" style="text;align=left;verticalAlign=top;spacingLeft=4;spacingRight=4;overflow=hidden;rotatable=0;points=[[0,0.5],[1,0.5]];portConstraint=eastwest;rounded=0;shadow=0;html=0;" parent="W8ViM3ZBRIf40E1-OJ4E-95" vertex="1">
          <mxGeometry x="3" y="56" width="160" height="26" as="geometry" />
        </mxCell>
        <mxCell id="W8ViM3ZBRIf40E1-OJ4E-98" value="App_issued_Date" style="text;align=left;verticalAlign=top;spacingLeft=4;spacingRight=4;overflow=hidden;rotatable=0;points=[[0,0.5],[1,0.5]];portConstraint=eastwest;rounded=0;shadow=0;html=0;" parent="W8ViM3ZBRIf40E1-OJ4E-95" vertex="1">
          <mxGeometry x="3" y="82" width="160" height="26" as="geometry" />
        </mxCell>
        <mxCell id="W8ViM3ZBRIf40E1-OJ4E-99" value="App_LnameEng" style="text;align=left;verticalAlign=top;spacingLeft=4;spacingRight=4;overflow=hidden;rotatable=0;points=[[0,0.5],[1,0.5]];portConstraint=eastwest;rounded=0;shadow=0;html=0;" parent="W8ViM3ZBRIf40E1-OJ4E-95" vertex="1">
          <mxGeometry x="3" y="108" width="160" height="26" as="geometry" />
        </mxCell>
        <mxCell id="W8ViM3ZBRIf40E1-OJ4E-100" value="" style="endArrow=classic;html=1;startSize=14;endSize=14;sourcePerimeterSpacing=8;targetPerimeterSpacing=8;entryX=-0.004;entryY=0.106;entryDx=0;entryDy=0;entryPerimeter=0;" parent="WIyWlLk6GJQsqaUBKTNV-1" target="W8ViM3ZBRIf40E1-OJ4E-95" edge="1">
          <mxGeometry width="50" height="50" relative="1" as="geometry">
            <mxPoint x="1100" y="461.0899999999999" as="sourcePoint" />
            <mxPoint x="1170" y="460" as="targetPoint" />
          </mxGeometry>
        </mxCell>
        <mxCell id="W8ViM3ZBRIf40E1-OJ4E-101" value="App_driving" style="swimlane;hachureGap=4;pointerEvents=0;" parent="WIyWlLk6GJQsqaUBKTNV-1" vertex="1">
          <mxGeometry x="1390" y="530" width="200" height="160" as="geometry" />
        </mxCell>
        <mxCell id="W8ViM3ZBRIf40E1-OJ4E-102" value="Driving_license" style="text;align=left;verticalAlign=top;spacingLeft=4;spacingRight=4;overflow=hidden;rotatable=0;points=[[0,0.5],[1,0.5]];portConstraint=eastwest;rounded=0;shadow=0;html=0;" parent="W8ViM3ZBRIf40E1-OJ4E-101" vertex="1">
          <mxGeometry x="3" y="30" width="160" height="26" as="geometry" />
        </mxCell>
        <mxCell id="W8ViM3ZBRIf40E1-OJ4E-103" value="Driving_category" style="text;align=left;verticalAlign=top;spacingLeft=4;spacingRight=4;overflow=hidden;rotatable=0;points=[[0,0.5],[1,0.5]];portConstraint=eastwest;rounded=0;shadow=0;html=0;" parent="W8ViM3ZBRIf40E1-OJ4E-101" vertex="1">
          <mxGeometry x="3" y="56" width="160" height="26" as="geometry" />
        </mxCell>
        <mxCell id="W8ViM3ZBRIf40E1-OJ4E-104" value="Driving_Issued_date" style="text;align=left;verticalAlign=top;spacingLeft=4;spacingRight=4;overflow=hidden;rotatable=0;points=[[0,0.5],[1,0.5]];portConstraint=eastwest;rounded=0;shadow=0;html=0;" parent="W8ViM3ZBRIf40E1-OJ4E-101" vertex="1">
          <mxGeometry x="3" y="82" width="160" height="26" as="geometry" />
        </mxCell>
        <mxCell id="W8ViM3ZBRIf40E1-OJ4E-105" value="Driving_Issued_by" style="text;align=left;verticalAlign=top;spacingLeft=4;spacingRight=4;overflow=hidden;rotatable=0;points=[[0,0.5],[1,0.5]];portConstraint=eastwest;rounded=0;shadow=0;html=0;" parent="W8ViM3ZBRIf40E1-OJ4E-101" vertex="1">
          <mxGeometry x="3" y="108" width="160" height="26" as="geometry" />
        </mxCell>
        <mxCell id="W8ViM3ZBRIf40E1-OJ4E-107" value="Driving_Expiry_date" style="text;align=left;verticalAlign=top;spacingLeft=4;spacingRight=4;overflow=hidden;rotatable=0;points=[[0,0.5],[1,0.5]];portConstraint=eastwest;rounded=0;shadow=0;html=0;" parent="W8ViM3ZBRIf40E1-OJ4E-101" vertex="1">
          <mxGeometry x="3" y="130" width="160" height="26" as="geometry" />
        </mxCell>
        <mxCell id="W8ViM3ZBRIf40E1-OJ4E-106" value="" style="endArrow=classic;html=1;startSize=14;endSize=14;sourcePerimeterSpacing=8;targetPerimeterSpacing=8;entryX=-0.01;entryY=0.076;entryDx=0;entryDy=0;entryPerimeter=0;" parent="WIyWlLk6GJQsqaUBKTNV-1" target="W8ViM3ZBRIf40E1-OJ4E-101" edge="1">
          <mxGeometry width="50" height="50" relative="1" as="geometry">
            <mxPoint x="1100" y="541.0899999999999" as="sourcePoint" />
            <mxPoint x="1140" y="537" as="targetPoint" />
          </mxGeometry>
        </mxCell>
        <mxCell id="W8ViM3ZBRIf40E1-OJ4E-108" value="Military_service" style="swimlane;hachureGap=4;pointerEvents=0;" parent="WIyWlLk6GJQsqaUBKTNV-1" vertex="1">
          <mxGeometry x="1170" y="560" width="200" height="80" as="geometry" />
        </mxCell>
        <mxCell id="W8ViM3ZBRIf40E1-OJ4E-109" value="Mil_status" style="text;align=left;verticalAlign=top;spacingLeft=4;spacingRight=4;overflow=hidden;rotatable=0;points=[[0,0.5],[1,0.5]];portConstraint=eastwest;rounded=0;shadow=0;html=0;" parent="W8ViM3ZBRIf40E1-OJ4E-108" vertex="1">
          <mxGeometry x="3" y="30" width="160" height="26" as="geometry" />
        </mxCell>
        <mxCell id="W8ViM3ZBRIf40E1-OJ4E-115" value="Mil_data" style="text;align=left;verticalAlign=top;spacingLeft=4;spacingRight=4;overflow=hidden;rotatable=0;points=[[0,0.5],[1,0.5]];portConstraint=eastwest;rounded=0;shadow=0;html=0;" parent="W8ViM3ZBRIf40E1-OJ4E-108" vertex="1">
          <mxGeometry x="3" y="52" width="160" height="26" as="geometry" />
        </mxCell>
        <mxCell id="W8ViM3ZBRIf40E1-OJ4E-114" value="" style="endArrow=classic;html=1;startSize=14;endSize=14;sourcePerimeterSpacing=8;targetPerimeterSpacing=8;entryX=0.004;entryY=0.167;entryDx=0;entryDy=0;entryPerimeter=0;" parent="WIyWlLk6GJQsqaUBKTNV-1" target="W8ViM3ZBRIf40E1-OJ4E-108" edge="1">
          <mxGeometry width="50" height="50" relative="1" as="geometry">
            <mxPoint x="1100" y="571.0899999999999" as="sourcePoint" />
            <mxPoint x="1140" y="567" as="targetPoint" />
          </mxGeometry>
        </mxCell>
        <mxCell id="W8ViM3ZBRIf40E1-OJ4E-116" value="More_information" style="swimlane;fontStyle=0;align=center;verticalAlign=top;childLayout=stackLayout;horizontal=1;startSize=26;horizontalStack=0;resizeParent=1;resizeLast=0;collapsible=1;marginBottom=0;rounded=0;shadow=0;strokeWidth=1;" parent="WIyWlLk6GJQsqaUBKTNV-1" vertex="1">
          <mxGeometry x="1907" y="56" width="160" height="344" as="geometry">
            <mxRectangle x="550" y="140" width="160" height="26" as="alternateBounds" />
          </mxGeometry>
        </mxCell>
        <mxCell id="W8ViM3ZBRIf40E1-OJ4E-117" value="AppID" style="text;align=left;verticalAlign=top;spacingLeft=4;spacingRight=4;overflow=hidden;rotatable=0;points=[[0,0.5],[1,0.5]];portConstraint=eastwest;" parent="W8ViM3ZBRIf40E1-OJ4E-116" vertex="1">
          <mxGeometry y="26" width="160" height="26" as="geometry" />
        </mxCell>
        <mxCell id="W8ViM3ZBRIf40E1-OJ4E-118" value="Emp_history" style="text;align=left;verticalAlign=top;spacingLeft=4;spacingRight=4;overflow=hidden;rotatable=0;points=[[0,0.5],[1,0.5]];portConstraint=eastwest;rounded=0;shadow=0;html=0;" parent="W8ViM3ZBRIf40E1-OJ4E-116" vertex="1">
          <mxGeometry y="52" width="160" height="26" as="geometry" />
        </mxCell>
        <mxCell id="W8ViM3ZBRIf40E1-OJ4E-119" value="Edu_history" style="text;align=left;verticalAlign=top;spacingLeft=4;spacingRight=4;overflow=hidden;rotatable=0;points=[[0,0.5],[1,0.5]];portConstraint=eastwest;rounded=0;shadow=0;html=0;" parent="W8ViM3ZBRIf40E1-OJ4E-116" vertex="1">
          <mxGeometry y="78" width="160" height="26" as="geometry" />
        </mxCell>
        <mxCell id="W8ViM3ZBRIf40E1-OJ4E-120" value="Personal_Com" style="text;align=left;verticalAlign=top;spacingLeft=4;spacingRight=4;overflow=hidden;rotatable=0;points=[[0,0.5],[1,0.5]];portConstraint=eastwest;rounded=0;shadow=0;html=0;" parent="W8ViM3ZBRIf40E1-OJ4E-116" vertex="1">
          <mxGeometry y="104" width="160" height="26" as="geometry" />
        </mxCell>
        <mxCell id="W8ViM3ZBRIf40E1-OJ4E-121" value="Gen_Other" style="text;align=left;verticalAlign=top;spacingLeft=4;spacingRight=4;overflow=hidden;rotatable=0;points=[[0,0.5],[1,0.5]];portConstraint=eastwest;rounded=0;shadow=0;html=0;" parent="W8ViM3ZBRIf40E1-OJ4E-116" vertex="1">
          <mxGeometry y="130" width="160" height="26" as="geometry" />
        </mxCell>
        <mxCell id="W8ViM3ZBRIf40E1-OJ4E-122" value="Skill_Language" style="text;align=left;verticalAlign=top;spacingLeft=4;spacingRight=4;overflow=hidden;rotatable=0;points=[[0,0.5],[1,0.5]];portConstraint=eastwest;rounded=0;shadow=0;html=0;" parent="W8ViM3ZBRIf40E1-OJ4E-116" vertex="1">
          <mxGeometry y="156" width="160" height="26" as="geometry" />
        </mxCell>
        <mxCell id="W8ViM3ZBRIf40E1-OJ4E-123" value="Case_of_Emergency" style="text;align=left;verticalAlign=top;spacingLeft=4;spacingRight=4;overflow=hidden;rotatable=0;points=[[0,0.5],[1,0.5]];portConstraint=eastwest;rounded=0;shadow=0;html=0;" parent="W8ViM3ZBRIf40E1-OJ4E-116" vertex="1">
          <mxGeometry y="182" width="160" height="26" as="geometry" />
        </mxCell>
        <mxCell id="W8ViM3ZBRIf40E1-OJ4E-124" value="Crime" style="text;align=left;verticalAlign=top;spacingLeft=4;spacingRight=4;overflow=hidden;rotatable=0;points=[[0,0.5],[1,0.5]];portConstraint=eastwest;rounded=0;shadow=0;html=0;" parent="W8ViM3ZBRIf40E1-OJ4E-116" vertex="1">
          <mxGeometry y="208" width="160" height="26" as="geometry" />
        </mxCell>
        <mxCell id="W8ViM3ZBRIf40E1-OJ4E-125" value="Relationship" style="text;align=left;verticalAlign=top;spacingLeft=4;spacingRight=4;overflow=hidden;rotatable=0;points=[[0,0.5],[1,0.5]];portConstraint=eastwest;rounded=0;shadow=0;html=0;" parent="W8ViM3ZBRIf40E1-OJ4E-116" vertex="1">
          <mxGeometry y="234" width="160" height="26" as="geometry" />
        </mxCell>
        <mxCell id="W8ViM3ZBRIf40E1-OJ4E-126" value="App_phone" style="text;align=left;verticalAlign=top;spacingLeft=4;spacingRight=4;overflow=hidden;rotatable=0;points=[[0,0.5],[1,0.5]];portConstraint=eastwest;rounded=0;shadow=0;html=0;" parent="W8ViM3ZBRIf40E1-OJ4E-116" vertex="1">
          <mxGeometry y="260" width="160" height="26" as="geometry" />
        </mxCell>
        <mxCell id="W8ViM3ZBRIf40E1-OJ4E-127" value="Verify" style="text;align=left;verticalAlign=top;spacingLeft=4;spacingRight=4;overflow=hidden;rotatable=0;points=[[0,0.5],[1,0.5]];portConstraint=eastwest;rounded=0;shadow=0;html=0;" parent="W8ViM3ZBRIf40E1-OJ4E-116" vertex="1">
          <mxGeometry y="286" width="160" height="26" as="geometry" />
        </mxCell>
        <mxCell id="W8ViM3ZBRIf40E1-OJ4E-136" value="" style="line;html=1;strokeWidth=1;align=left;verticalAlign=middle;spacingTop=-1;spacingLeft=3;spacingRight=3;rotatable=0;labelPosition=right;points=[];portConstraint=eastwest;" parent="W8ViM3ZBRIf40E1-OJ4E-116" vertex="1">
          <mxGeometry y="312" width="160" height="8" as="geometry" />
        </mxCell>
        <mxCell id="W8ViM3ZBRIf40E1-OJ4E-139" value="" style="endArrow=classic;html=1;startSize=14;endSize=14;sourcePerimeterSpacing=8;targetPerimeterSpacing=8;entryX=-0.012;entryY=0.037;entryDx=0;entryDy=0;entryPerimeter=0;" parent="WIyWlLk6GJQsqaUBKTNV-1" target="W8ViM3ZBRIf40E1-OJ4E-116" edge="1">
          <mxGeometry width="50" height="50" relative="1" as="geometry">
            <mxPoint x="1100" y="71.08999999999995" as="sourcePoint" />
            <mxPoint x="1197.1999999999998" y="70.00000000000003" as="targetPoint" />
          </mxGeometry>
        </mxCell>
        <mxCell id="W8ViM3ZBRIf40E1-OJ4E-140" value="Emp_history" style="swimlane;hachureGap=4;pointerEvents=0;" parent="WIyWlLk6GJQsqaUBKTNV-1" vertex="1">
          <mxGeometry x="2810" y="100" width="200" height="170" as="geometry" />
        </mxCell>
        <mxCell id="W8ViM3ZBRIf40E1-OJ4E-141" value="his_company" style="text;align=left;verticalAlign=top;spacingLeft=4;spacingRight=4;overflow=hidden;rotatable=0;points=[[0,0.5],[1,0.5]];portConstraint=eastwest;rounded=0;shadow=0;html=0;" parent="W8ViM3ZBRIf40E1-OJ4E-140" vertex="1">
          <mxGeometry x="3" y="30" width="160" height="26" as="geometry" />
        </mxCell>
        <mxCell id="W8ViM3ZBRIf40E1-OJ4E-142" value="his_company_position" style="text;align=left;verticalAlign=top;spacingLeft=4;spacingRight=4;overflow=hidden;rotatable=0;points=[[0,0.5],[1,0.5]];portConstraint=eastwest;rounded=0;shadow=0;html=0;" parent="W8ViM3ZBRIf40E1-OJ4E-140" vertex="1">
          <mxGeometry x="3" y="56" width="160" height="26" as="geometry" />
        </mxCell>
        <mxCell id="W8ViM3ZBRIf40E1-OJ4E-143" value="his_company_salary" style="text;align=left;verticalAlign=top;spacingLeft=4;spacingRight=4;overflow=hidden;rotatable=0;points=[[0,0.5],[1,0.5]];portConstraint=eastwest;rounded=0;shadow=0;html=0;" parent="W8ViM3ZBRIf40E1-OJ4E-140" vertex="1">
          <mxGeometry x="3" y="82" width="160" height="26" as="geometry" />
        </mxCell>
        <mxCell id="W8ViM3ZBRIf40E1-OJ4E-144" value="his_dateEmp" style="text;align=left;verticalAlign=top;spacingLeft=4;spacingRight=4;overflow=hidden;rotatable=0;points=[[0,0.5],[1,0.5]];portConstraint=eastwest;rounded=0;shadow=0;html=0;" parent="W8ViM3ZBRIf40E1-OJ4E-140" vertex="1">
          <mxGeometry x="3" y="108" width="160" height="26" as="geometry" />
        </mxCell>
        <mxCell id="W8ViM3ZBRIf40E1-OJ4E-146" value="his_ToEmp" style="text;align=left;verticalAlign=top;spacingLeft=4;spacingRight=4;overflow=hidden;rotatable=0;points=[[0,0.5],[1,0.5]];portConstraint=eastwest;rounded=0;shadow=0;html=0;" parent="W8ViM3ZBRIf40E1-OJ4E-140" vertex="1">
          <mxGeometry x="3" y="134" width="160" height="26" as="geometry" />
        </mxCell>
        <mxCell id="W8ViM3ZBRIf40E1-OJ4E-145" value="" style="endArrow=classic;html=1;startSize=14;endSize=14;sourcePerimeterSpacing=8;targetPerimeterSpacing=8;entryX=0.004;entryY=0.092;entryDx=0;entryDy=0;entryPerimeter=0;" parent="WIyWlLk6GJQsqaUBKTNV-1" target="W8ViM3ZBRIf40E1-OJ4E-140" edge="1">
          <mxGeometry width="50" height="50" relative="1" as="geometry">
            <mxPoint x="2068" y="119.99999999999994" as="sourcePoint" />
            <mxPoint x="2138.8" y="122.26999999999992" as="targetPoint" />
          </mxGeometry>
        </mxCell>
        <mxCell id="W8ViM3ZBRIf40E1-OJ4E-147" value="Edu_history" style="swimlane;hachureGap=4;pointerEvents=0;" parent="WIyWlLk6GJQsqaUBKTNV-1" vertex="1">
          <mxGeometry x="2610" y="132.5" width="200" height="170" as="geometry" />
        </mxCell>
        <mxCell id="W8ViM3ZBRIf40E1-OJ4E-148" value="Edu_level" style="text;align=left;verticalAlign=top;spacingLeft=4;spacingRight=4;overflow=hidden;rotatable=0;points=[[0,0.5],[1,0.5]];portConstraint=eastwest;rounded=0;shadow=0;html=0;" parent="W8ViM3ZBRIf40E1-OJ4E-147" vertex="1">
          <mxGeometry x="3" y="30" width="160" height="26" as="geometry" />
        </mxCell>
        <mxCell id="W8ViM3ZBRIf40E1-OJ4E-149" value="name_Institure" style="text;align=left;verticalAlign=top;spacingLeft=4;spacingRight=4;overflow=hidden;rotatable=0;points=[[0,0.5],[1,0.5]];portConstraint=eastwest;rounded=0;shadow=0;html=0;" parent="W8ViM3ZBRIf40E1-OJ4E-147" vertex="1">
          <mxGeometry x="3" y="56" width="160" height="26" as="geometry" />
        </mxCell>
        <mxCell id="W8ViM3ZBRIf40E1-OJ4E-150" value="course_completed" style="text;align=left;verticalAlign=top;spacingLeft=4;spacingRight=4;overflow=hidden;rotatable=0;points=[[0,0.5],[1,0.5]];portConstraint=eastwest;rounded=0;shadow=0;html=0;" parent="W8ViM3ZBRIf40E1-OJ4E-147" vertex="1">
          <mxGeometry x="3" y="82" width="160" height="26" as="geometry" />
        </mxCell>
        <mxCell id="W8ViM3ZBRIf40E1-OJ4E-151" value="year_from" style="text;align=left;verticalAlign=top;spacingLeft=4;spacingRight=4;overflow=hidden;rotatable=0;points=[[0,0.5],[1,0.5]];portConstraint=eastwest;rounded=0;shadow=0;html=0;" parent="W8ViM3ZBRIf40E1-OJ4E-147" vertex="1">
          <mxGeometry x="3" y="108" width="160" height="26" as="geometry" />
        </mxCell>
        <mxCell id="W8ViM3ZBRIf40E1-OJ4E-152" value="year_to" style="text;align=left;verticalAlign=top;spacingLeft=4;spacingRight=4;overflow=hidden;rotatable=0;points=[[0,0.5],[1,0.5]];portConstraint=eastwest;rounded=0;shadow=0;html=0;" parent="W8ViM3ZBRIf40E1-OJ4E-147" vertex="1">
          <mxGeometry x="3" y="134" width="160" height="26" as="geometry" />
        </mxCell>
        <mxCell id="W8ViM3ZBRIf40E1-OJ4E-153" value="" style="endArrow=classic;html=1;startSize=14;endSize=14;sourcePerimeterSpacing=8;targetPerimeterSpacing=8;entryX=-0.014;entryY=0.079;entryDx=0;entryDy=0;entryPerimeter=0;" parent="WIyWlLk6GJQsqaUBKTNV-1" target="W8ViM3ZBRIf40E1-OJ4E-147" edge="1">
          <mxGeometry width="50" height="50" relative="1" as="geometry">
            <mxPoint x="2067" y="149.99999999999994" as="sourcePoint" />
            <mxPoint x="2137.8" y="152.26999999999992" as="targetPoint" />
          </mxGeometry>
        </mxCell>
        <mxCell id="W8ViM3ZBRIf40E1-OJ4E-154" value="Skill_Language" style="swimlane;hachureGap=4;pointerEvents=0;" parent="WIyWlLk6GJQsqaUBKTNV-1" vertex="1">
          <mxGeometry x="2400" y="210" width="200" height="170" as="geometry" />
        </mxCell>
        <mxCell id="W8ViM3ZBRIf40E1-OJ4E-155" value="Language" style="text;align=left;verticalAlign=top;spacingLeft=4;spacingRight=4;overflow=hidden;rotatable=0;points=[[0,0.5],[1,0.5]];portConstraint=eastwest;rounded=0;shadow=0;html=0;" parent="W8ViM3ZBRIf40E1-OJ4E-154" vertex="1">
          <mxGeometry x="3" y="30" width="160" height="26" as="geometry" />
        </mxCell>
        <mxCell id="W8ViM3ZBRIf40E1-OJ4E-156" value="Speaking" style="text;align=left;verticalAlign=top;spacingLeft=4;spacingRight=4;overflow=hidden;rotatable=0;points=[[0,0.5],[1,0.5]];portConstraint=eastwest;rounded=0;shadow=0;html=0;" parent="W8ViM3ZBRIf40E1-OJ4E-154" vertex="1">
          <mxGeometry x="3" y="56" width="160" height="26" as="geometry" />
        </mxCell>
        <mxCell id="W8ViM3ZBRIf40E1-OJ4E-157" value="Listening" style="text;align=left;verticalAlign=top;spacingLeft=4;spacingRight=4;overflow=hidden;rotatable=0;points=[[0,0.5],[1,0.5]];portConstraint=eastwest;rounded=0;shadow=0;html=0;" parent="W8ViM3ZBRIf40E1-OJ4E-154" vertex="1">
          <mxGeometry x="3" y="82" width="160" height="26" as="geometry" />
        </mxCell>
        <mxCell id="W8ViM3ZBRIf40E1-OJ4E-158" value="Reading" style="text;align=left;verticalAlign=top;spacingLeft=4;spacingRight=4;overflow=hidden;rotatable=0;points=[[0,0.5],[1,0.5]];portConstraint=eastwest;rounded=0;shadow=0;html=0;" parent="W8ViM3ZBRIf40E1-OJ4E-154" vertex="1">
          <mxGeometry x="3" y="108" width="160" height="26" as="geometry" />
        </mxCell>
        <mxCell id="W8ViM3ZBRIf40E1-OJ4E-159" value="Writing" style="text;align=left;verticalAlign=top;spacingLeft=4;spacingRight=4;overflow=hidden;rotatable=0;points=[[0,0.5],[1,0.5]];portConstraint=eastwest;rounded=0;shadow=0;html=0;" parent="W8ViM3ZBRIf40E1-OJ4E-154" vertex="1">
          <mxGeometry x="3" y="134" width="160" height="26" as="geometry" />
        </mxCell>
        <mxCell id="W8ViM3ZBRIf40E1-OJ4E-160" value="" style="endArrow=classic;html=1;startSize=14;endSize=14;sourcePerimeterSpacing=8;targetPerimeterSpacing=8;entryX=0.004;entryY=0.088;entryDx=0;entryDy=0;entryPerimeter=0;" parent="WIyWlLk6GJQsqaUBKTNV-1" target="W8ViM3ZBRIf40E1-OJ4E-154" edge="1">
          <mxGeometry width="50" height="50" relative="1" as="geometry">
            <mxPoint x="2066.9999999999995" y="223.5" as="sourcePoint" />
            <mxPoint x="2120" y="227" as="targetPoint" />
          </mxGeometry>
        </mxCell>
        <mxCell id="W8ViM3ZBRIf40E1-OJ4E-161" value="Case_of_Emergency" style="swimlane;hachureGap=4;pointerEvents=0;startSize=23;" parent="WIyWlLk6GJQsqaUBKTNV-1" vertex="1">
          <mxGeometry x="2180" y="240" width="200" height="140" as="geometry" />
        </mxCell>
        <mxCell id="W8ViM3ZBRIf40E1-OJ4E-162" value="Eme_Fname" style="text;align=left;verticalAlign=top;spacingLeft=4;spacingRight=4;overflow=hidden;rotatable=0;points=[[0,0.5],[1,0.5]];portConstraint=eastwest;rounded=0;shadow=0;html=0;" parent="W8ViM3ZBRIf40E1-OJ4E-161" vertex="1">
          <mxGeometry x="3" y="30" width="160" height="26" as="geometry" />
        </mxCell>
        <mxCell id="W8ViM3ZBRIf40E1-OJ4E-163" value="Eme_Lname" style="text;align=left;verticalAlign=top;spacingLeft=4;spacingRight=4;overflow=hidden;rotatable=0;points=[[0,0.5],[1,0.5]];portConstraint=eastwest;rounded=0;shadow=0;html=0;" parent="W8ViM3ZBRIf40E1-OJ4E-161" vertex="1">
          <mxGeometry x="3" y="56" width="160" height="26" as="geometry" />
        </mxCell>
        <mxCell id="W8ViM3ZBRIf40E1-OJ4E-164" value="Eme_telephone" style="text;align=left;verticalAlign=top;spacingLeft=4;spacingRight=4;overflow=hidden;rotatable=0;points=[[0,0.5],[1,0.5]];portConstraint=eastwest;rounded=0;shadow=0;html=0;" parent="W8ViM3ZBRIf40E1-OJ4E-161" vertex="1">
          <mxGeometry x="3" y="82" width="160" height="26" as="geometry" />
        </mxCell>
        <mxCell id="W8ViM3ZBRIf40E1-OJ4E-165" value="Eme_Relation" style="text;align=left;verticalAlign=top;spacingLeft=4;spacingRight=4;overflow=hidden;rotatable=0;points=[[0,0.5],[1,0.5]];portConstraint=eastwest;rounded=0;shadow=0;html=0;" parent="W8ViM3ZBRIf40E1-OJ4E-161" vertex="1">
          <mxGeometry x="3" y="108" width="160" height="26" as="geometry" />
        </mxCell>
        <mxCell id="W8ViM3ZBRIf40E1-OJ4E-167" value="" style="endArrow=classic;html=1;startSize=14;endSize=14;sourcePerimeterSpacing=8;targetPerimeterSpacing=8;entryX=-0.011;entryY=0.067;entryDx=0;entryDy=0;entryPerimeter=0;" parent="WIyWlLk6GJQsqaUBKTNV-1" target="W8ViM3ZBRIf40E1-OJ4E-161" edge="1">
          <mxGeometry width="50" height="50" relative="1" as="geometry">
            <mxPoint x="2067" y="249.99999999999994" as="sourcePoint" />
            <mxPoint x="2137.8" y="252.26999999999992" as="targetPoint" />
          </mxGeometry>
        </mxCell>
        <mxCell id="W8ViM3ZBRIf40E1-OJ4E-168" value="" style="endArrow=classic;html=1;startSize=14;endSize=14;sourcePerimeterSpacing=8;targetPerimeterSpacing=8;entryX=0.999;entryY=0.124;entryDx=0;entryDy=0;entryPerimeter=0;" parent="WIyWlLk6GJQsqaUBKTNV-1" target="W8ViM3ZBRIf40E1-OJ4E-169" edge="1">
          <mxGeometry width="50" height="50" relative="1" as="geometry">
            <mxPoint x="1907" y="280" as="sourcePoint" />
            <mxPoint x="1650" y="280" as="targetPoint" />
          </mxGeometry>
        </mxCell>
        <mxCell id="W8ViM3ZBRIf40E1-OJ4E-169" value="Crime" style="swimlane;hachureGap=4;pointerEvents=0;startSize=23;" parent="WIyWlLk6GJQsqaUBKTNV-1" vertex="1">
          <mxGeometry x="1430" y="270" width="200" height="87" as="geometry" />
        </mxCell>
        <mxCell id="W8ViM3ZBRIf40E1-OJ4E-170" value="Status_crime" style="text;align=left;verticalAlign=top;spacingLeft=4;spacingRight=4;overflow=hidden;rotatable=0;points=[[0,0.5],[1,0.5]];portConstraint=eastwest;rounded=0;shadow=0;html=0;" parent="W8ViM3ZBRIf40E1-OJ4E-169" vertex="1">
          <mxGeometry x="3" y="30" width="160" height="26" as="geometry" />
        </mxCell>
        <mxCell id="W8ViM3ZBRIf40E1-OJ4E-171" value="Data_crime" style="text;align=left;verticalAlign=top;spacingLeft=4;spacingRight=4;overflow=hidden;rotatable=0;points=[[0,0.5],[1,0.5]];portConstraint=eastwest;rounded=0;shadow=0;html=0;" parent="W8ViM3ZBRIf40E1-OJ4E-169" vertex="1">
          <mxGeometry x="3" y="56" width="160" height="26" as="geometry" />
        </mxCell>
        <mxCell id="W8ViM3ZBRIf40E1-OJ4E-174" value="" style="endArrow=classic;html=1;startSize=14;endSize=14;sourcePerimeterSpacing=8;targetPerimeterSpacing=8;" parent="WIyWlLk6GJQsqaUBKTNV-1" edge="1">
          <mxGeometry width="50" height="50" relative="1" as="geometry">
            <mxPoint x="1906.9999999999995" y="309.41" as="sourcePoint" />
            <mxPoint x="1840" y="310" as="targetPoint" />
          </mxGeometry>
        </mxCell>
        <mxCell id="W8ViM3ZBRIf40E1-OJ4E-175" value="Relationship" style="swimlane;hachureGap=4;pointerEvents=0;startSize=23;" parent="WIyWlLk6GJQsqaUBKTNV-1" vertex="1">
          <mxGeometry x="1640" y="302.5" width="200" height="117.5" as="geometry" />
        </mxCell>
        <mxCell id="W8ViM3ZBRIf40E1-OJ4E-176" value="Fname" style="text;align=left;verticalAlign=top;spacingLeft=4;spacingRight=4;overflow=hidden;rotatable=0;points=[[0,0.5],[1,0.5]];portConstraint=eastwest;rounded=0;shadow=0;html=0;" parent="W8ViM3ZBRIf40E1-OJ4E-175" vertex="1">
          <mxGeometry x="3" y="30" width="160" height="26" as="geometry" />
        </mxCell>
        <mxCell id="W8ViM3ZBRIf40E1-OJ4E-177" value="Lname" style="text;align=left;verticalAlign=top;spacingLeft=4;spacingRight=4;overflow=hidden;rotatable=0;points=[[0,0.5],[1,0.5]];portConstraint=eastwest;rounded=0;shadow=0;html=0;" parent="W8ViM3ZBRIf40E1-OJ4E-175" vertex="1">
          <mxGeometry x="3" y="56" width="160" height="26" as="geometry" />
        </mxCell>
        <mxCell id="W8ViM3ZBRIf40E1-OJ4E-178" value="Relation" style="text;align=left;verticalAlign=top;spacingLeft=4;spacingRight=4;overflow=hidden;rotatable=0;points=[[0,0.5],[1,0.5]];portConstraint=eastwest;rounded=0;shadow=0;html=0;" parent="W8ViM3ZBRIf40E1-OJ4E-175" vertex="1">
          <mxGeometry x="3" y="82" width="160" height="26" as="geometry" />
        </mxCell>
        <mxCell id="W8ViM3ZBRIf40E1-OJ4E-179" value="Verify" style="swimlane;hachureGap=4;pointerEvents=0;startSize=23;" parent="WIyWlLk6GJQsqaUBKTNV-1" vertex="1">
          <mxGeometry x="2110" y="410" width="200" height="90" as="geometry" />
        </mxCell>
        <mxCell id="W8ViM3ZBRIf40E1-OJ4E-180" value="Verify_singnature" style="text;align=left;verticalAlign=top;spacingLeft=4;spacingRight=4;overflow=hidden;rotatable=0;points=[[0,0.5],[1,0.5]];portConstraint=eastwest;rounded=0;shadow=0;html=0;" parent="W8ViM3ZBRIf40E1-OJ4E-179" vertex="1">
          <mxGeometry x="3" y="30" width="160" height="26" as="geometry" />
        </mxCell>
        <mxCell id="W8ViM3ZBRIf40E1-OJ4E-181" value="Verify_date" style="text;align=left;verticalAlign=top;spacingLeft=4;spacingRight=4;overflow=hidden;rotatable=0;points=[[0,0.5],[1,0.5]];portConstraint=eastwest;rounded=0;shadow=0;html=0;" parent="W8ViM3ZBRIf40E1-OJ4E-179" vertex="1">
          <mxGeometry x="3" y="56" width="160" height="26" as="geometry" />
        </mxCell>
        <mxCell id="W8ViM3ZBRIf40E1-OJ4E-184" value="" style="endArrow=classic;html=1;startSize=14;endSize=14;sourcePerimeterSpacing=8;targetPerimeterSpacing=8;entryX=0.197;entryY=0;entryDx=0;entryDy=0;entryPerimeter=0;" parent="WIyWlLk6GJQsqaUBKTNV-1" target="W8ViM3ZBRIf40E1-OJ4E-179" edge="1">
          <mxGeometry width="50" height="50" relative="1" as="geometry">
            <mxPoint x="2068" y="352.5" as="sourcePoint" />
            <mxPoint x="2150" y="420" as="targetPoint" />
            <Array as="points">
              <mxPoint x="2150" y="353" />
            </Array>
          </mxGeometry>
        </mxCell>
        <mxCell id="4WidjncS_HYHHtrN4FSi-23" value="contract_staff" style="swimlane;fontStyle=2;align=center;verticalAlign=top;childLayout=stackLayout;horizontal=1;startSize=26;horizontalStack=0;resizeParent=1;resizeLast=0;collapsible=1;marginBottom=0;rounded=0;shadow=0;strokeWidth=1;" vertex="1" parent="WIyWlLk6GJQsqaUBKTNV-1">
          <mxGeometry x="460" y="820" width="160" height="398" as="geometry">
            <mxRectangle x="230" y="140" width="160" height="26" as="alternateBounds" />
          </mxGeometry>
        </mxCell>
        <mxCell id="4WidjncS_HYHHtrN4FSi-24" value="ManID" style="text;align=left;verticalAlign=top;spacingLeft=4;spacingRight=4;overflow=hidden;rotatable=0;points=[[0,0.5],[1,0.5]];portConstraint=eastwest;" vertex="1" parent="4WidjncS_HYHHtrN4FSi-23">
          <mxGeometry y="26" width="160" height="26" as="geometry" />
        </mxCell>
        <mxCell id="4WidjncS_HYHHtrN4FSi-25" value="AppID" style="text;align=left;verticalAlign=top;spacingLeft=4;spacingRight=4;overflow=hidden;rotatable=0;points=[[0,0.5],[1,0.5]];portConstraint=eastwest;rounded=0;shadow=0;html=0;" vertex="1" parent="4WidjncS_HYHHtrN4FSi-23">
          <mxGeometry y="52" width="160" height="26" as="geometry" />
        </mxCell>
        <mxCell id="4WidjncS_HYHHtrN4FSi-26" value="Emp_Startdate" style="text;align=left;verticalAlign=top;spacingLeft=4;spacingRight=4;overflow=hidden;rotatable=0;points=[[0,0.5],[1,0.5]];portConstraint=eastwest;rounded=0;shadow=0;html=0;" vertex="1" parent="4WidjncS_HYHHtrN4FSi-23">
          <mxGeometry y="78" width="160" height="26" as="geometry" />
        </mxCell>
        <mxCell id="4WidjncS_HYHHtrN4FSi-27" value="Emp_enddate" style="text;align=left;verticalAlign=top;spacingLeft=4;spacingRight=4;overflow=hidden;rotatable=0;points=[[0,0.5],[1,0.5]];portConstraint=eastwest;rounded=0;shadow=0;html=0;" vertex="1" parent="4WidjncS_HYHHtrN4FSi-23">
          <mxGeometry y="104" width="160" height="26" as="geometry" />
        </mxCell>
        <mxCell id="4WidjncS_HYHHtrN4FSi-28" value="Emp_salary" style="text;align=left;verticalAlign=top;spacingLeft=4;spacingRight=4;overflow=hidden;rotatable=0;points=[[0,0.5],[1,0.5]];portConstraint=eastwest;rounded=0;shadow=0;html=0;" vertex="1" parent="4WidjncS_HYHHtrN4FSi-23">
          <mxGeometry y="130" width="160" height="26" as="geometry" />
        </mxCell>
        <mxCell id="4WidjncS_HYHHtrN4FSi-29" value="Text_emp_salary" style="text;align=left;verticalAlign=top;spacingLeft=4;spacingRight=4;overflow=hidden;rotatable=0;points=[[0,0.5],[1,0.5]];portConstraint=eastwest;rounded=0;shadow=0;html=0;" vertex="1" parent="4WidjncS_HYHHtrN4FSi-23">
          <mxGeometry y="156" width="160" height="26" as="geometry" />
        </mxCell>
        <mxCell id="4WidjncS_HYHHtrN4FSi-30" value="Emp_contract_signature" style="text;align=left;verticalAlign=top;spacingLeft=4;spacingRight=4;overflow=hidden;rotatable=0;points=[[0,0.5],[1,0.5]];portConstraint=eastwest;rounded=0;shadow=0;html=0;" vertex="1" parent="4WidjncS_HYHHtrN4FSi-23">
          <mxGeometry y="182" width="160" height="26" as="geometry" />
        </mxCell>
        <mxCell id="4WidjncS_HYHHtrN4FSi-31" value="Emp_witness_signature" style="text;align=left;verticalAlign=top;spacingLeft=4;spacingRight=4;overflow=hidden;rotatable=0;points=[[0,0.5],[1,0.5]];portConstraint=eastwest;rounded=0;shadow=0;html=0;" vertex="1" parent="4WidjncS_HYHHtrN4FSi-23">
          <mxGeometry y="208" width="160" height="26" as="geometry" />
        </mxCell>
        <mxCell id="4WidjncS_HYHHtrN4FSi-46" value="Food" style="text;align=left;verticalAlign=top;spacingLeft=4;spacingRight=4;overflow=hidden;rotatable=0;points=[[0,0.5],[1,0.5]];portConstraint=eastwest;rounded=0;shadow=0;html=0;" vertex="1" parent="4WidjncS_HYHHtrN4FSi-23">
          <mxGeometry y="234" width="160" height="26" as="geometry" />
        </mxCell>
        <mxCell id="4WidjncS_HYHHtrN4FSi-50" value="Ethnicity" style="text;align=left;verticalAlign=top;spacingLeft=4;spacingRight=4;overflow=hidden;rotatable=0;points=[[0,0.5],[1,0.5]];portConstraint=eastwest;rounded=0;shadow=0;html=0;" vertex="1" parent="4WidjncS_HYHHtrN4FSi-23">
          <mxGeometry y="260" width="160" height="26" as="geometry" />
        </mxCell>
        <mxCell id="4WidjncS_HYHHtrN4FSi-49" value="Nationality" style="text;align=left;verticalAlign=top;spacingLeft=4;spacingRight=4;overflow=hidden;rotatable=0;points=[[0,0.5],[1,0.5]];portConstraint=eastwest;rounded=0;shadow=0;html=0;" vertex="1" parent="4WidjncS_HYHHtrN4FSi-23">
          <mxGeometry y="286" width="160" height="26" as="geometry" />
        </mxCell>
        <mxCell id="4WidjncS_HYHHtrN4FSi-48" value="Marital_status" style="text;align=left;verticalAlign=top;spacingLeft=4;spacingRight=4;overflow=hidden;rotatable=0;points=[[0,0.5],[1,0.5]];portConstraint=eastwest;rounded=0;shadow=0;html=0;" vertex="1" parent="4WidjncS_HYHHtrN4FSi-23">
          <mxGeometry y="312" width="160" height="26" as="geometry" />
        </mxCell>
        <mxCell id="4WidjncS_HYHHtrN4FSi-47" value="Bank_number" style="text;align=left;verticalAlign=top;spacingLeft=4;spacingRight=4;overflow=hidden;rotatable=0;points=[[0,0.5],[1,0.5]];portConstraint=eastwest;rounded=0;shadow=0;html=0;" vertex="1" parent="4WidjncS_HYHHtrN4FSi-23">
          <mxGeometry y="338" width="160" height="26" as="geometry" />
        </mxCell>
        <mxCell id="4WidjncS_HYHHtrN4FSi-32" value="AddressEng" style="text;align=left;verticalAlign=top;spacingLeft=4;spacingRight=4;overflow=hidden;rotatable=0;points=[[0,0.5],[1,0.5]];portConstraint=eastwest;rounded=0;shadow=0;html=0;" vertex="1" parent="4WidjncS_HYHHtrN4FSi-23">
          <mxGeometry y="364" width="160" height="26" as="geometry" />
        </mxCell>
        <mxCell id="4WidjncS_HYHHtrN4FSi-45" value="" style="line;html=1;strokeWidth=1;align=left;verticalAlign=middle;spacingTop=-1;spacingLeft=3;spacingRight=3;rotatable=0;labelPosition=right;points=[];portConstraint=eastwest;" vertex="1" parent="4WidjncS_HYHHtrN4FSi-23">
          <mxGeometry y="390" width="160" height="8" as="geometry" />
        </mxCell>
        <mxCell id="4WidjncS_HYHHtrN4FSi-61" value="" style="endArrow=classic;html=1;startSize=14;endSize=14;sourcePerimeterSpacing=8;targetPerimeterSpacing=8;entryX=0;entryY=0.5;entryDx=0;entryDy=0;" edge="1" parent="WIyWlLk6GJQsqaUBKTNV-1" target="4WidjncS_HYHHtrN4FSi-29">
          <mxGeometry width="50" height="50" relative="1" as="geometry">
            <mxPoint x="150" y="640" as="sourcePoint" />
            <mxPoint x="430" y="980" as="targetPoint" />
            <Array as="points">
              <mxPoint x="150" y="989" />
            </Array>
          </mxGeometry>
        </mxCell>
        <mxCell id="4WidjncS_HYHHtrN4FSi-62" value="" style="endArrow=classic;html=1;startSize=14;endSize=14;sourcePerimeterSpacing=8;targetPerimeterSpacing=8;entryX=0.996;entryY=-0.192;entryDx=0;entryDy=0;entryPerimeter=0;" edge="1" parent="WIyWlLk6GJQsqaUBKTNV-1" target="4WidjncS_HYHHtrN4FSi-30">
          <mxGeometry width="50" height="50" relative="1" as="geometry">
            <mxPoint x="1020" y="640" as="sourcePoint" />
            <mxPoint x="1330" y="988.9999999999998" as="targetPoint" />
            <Array as="points">
              <mxPoint x="1020" y="989" />
            </Array>
          </mxGeometry>
        </mxCell>
      </root>
    </mxGraphModel>
  </diagram>
</mxfile>
